<svg id="visual" viewBox="0 0 900 600" width="900" height="600" xmlns="http://www.w3.org/2000/svg" xmlns:xlink="http://www.w3.org/1999/xlink" version="1.1"><rect x="0" y="0" width="900" height="600" fill="#002233"></rect><path d="M0 467L21.5 468.5C43 470 86 473 128.8 467.3C171.7 461.7 214.3 447.3 257.2 435.2C300 423 343 413 385.8 408C428.7 403 471.3 403 514.2 412.3C557 421.7 600 440.3 642.8 456.2C685.7 472 728.3 485 771.2 490.7C814 496.3 857 494.7 878.5 493.8L900 493L900 601L878.5 601C857 601 814 601 771.2 601C728.3 601 685.7 601 642.8 601C600 601 557 601 514.2 601C471.3 601 428.7 601 385.8 601C343 601 300 601 257.2 601C214.3 601 171.7 601 128.8 601C86 601 43 601 21.5 601L0 601Z" fill="#0066FF" stroke-linecap="round" stroke-linejoin="miter"></path></svg>